<mxfile host="Electron" modified="2023-08-29T21:22:51.533Z" agent="Mozilla/5.0 (Macintosh; Intel Mac OS X 10_15_7) AppleWebKit/537.36 (KHTML, like Gecko) draw.io/21.6.8 Chrome/114.0.5735.289 Electron/25.5.0 Safari/537.36" etag="e4aOesmelxC8qcCSfOmm" version="21.6.8" type="device" pages="2">
  <diagram id="DZq95CDJEcNnEX3gtbl7" name="physical-runtime">
    <mxGraphModel dx="1242" dy="1673" grid="1" gridSize="10" guides="1" tooltips="1" connect="1" arrows="1" fold="1" page="1" pageScale="1" pageWidth="1100" pageHeight="850" background="#ffffff" math="0" shadow="0">
      <root>
        <mxCell id="0" />
        <mxCell id="1" parent="0" />
        <mxCell id="42" value="   Tenant Silo" style="fillColor=none;strokeColor=#5A6C86;dashed=1;verticalAlign=top;fontStyle=0;fontColor=#5A6C86;labelBackgroundColor=none;align=left;" parent="1" vertex="1">
          <mxGeometry x="210" y="50" width="570" height="620" as="geometry" />
        </mxCell>
        <mxCell id="43" value="Region" style="points=[[0,0],[0.25,0],[0.5,0],[0.75,0],[1,0],[1,0.25],[1,0.5],[1,0.75],[1,1],[0.75,1],[0.5,1],[0.25,1],[0,1],[0,0.75],[0,0.5],[0,0.25]];outlineConnect=0;gradientColor=none;html=1;whiteSpace=wrap;fontSize=12;fontStyle=0;container=1;pointerEvents=0;collapsible=0;recursiveResize=0;shape=mxgraph.aws4.group;grIcon=mxgraph.aws4.group_region;strokeColor=#147EBA;fillColor=none;verticalAlign=top;align=left;spacingLeft=30;fontColor=#147EBA;dashed=1;" parent="1" vertex="1">
          <mxGeometry x="180" y="20" width="620" height="670" as="geometry" />
        </mxCell>
        <mxCell id="44" value="AWS Cloud" style="points=[[0,0],[0.25,0],[0.5,0],[0.75,0],[1,0],[1,0.25],[1,0.5],[1,0.75],[1,1],[0.75,1],[0.5,1],[0.25,1],[0,1],[0,0.75],[0,0.5],[0,0.25]];outlineConnect=0;gradientColor=none;html=1;whiteSpace=wrap;fontSize=12;fontStyle=0;container=1;pointerEvents=0;collapsible=0;recursiveResize=0;shape=mxgraph.aws4.group;grIcon=mxgraph.aws4.group_aws_cloud_alt;strokeColor=#232F3E;fillColor=none;verticalAlign=top;align=left;spacingLeft=30;fontColor=#232F3E;dashed=0;" parent="1" vertex="1">
          <mxGeometry x="160" y="-10" width="660" height="720" as="geometry" />
        </mxCell>
        <mxCell id="aaWiERCUlSNiqH8K9m5D-63" value="Access Management Module" style="fillColor=none;strokeColor=#5A6C86;dashed=1;verticalAlign=top;fontStyle=0;fontColor=#5A6C86;labelBackgroundColor=none;" parent="44" vertex="1">
          <mxGeometry x="70" y="100" width="250" height="160" as="geometry" />
        </mxCell>
        <mxCell id="39" value="Calculations Module" style="fillColor=none;strokeColor=#5A6C86;dashed=1;verticalAlign=top;fontStyle=0;fontColor=#5A6C86;labelBackgroundColor=none;" parent="44" vertex="1">
          <mxGeometry x="70" y="282" width="530" height="378" as="geometry" />
        </mxCell>
        <mxCell id="28" value="read/write" style="edgeStyle=none;html=1;strokeColor=#000000;labelBackgroundColor=none;fontColor=#000000;" parent="44" source="24" target="27" edge="1">
          <mxGeometry x="-0.4754" y="15" relative="1" as="geometry">
            <mxPoint as="offset" />
          </mxGeometry>
        </mxCell>
        <mxCell id="aaWiERCUlSNiqH8K9m5D-50" value="publishes" style="edgeStyle=none;rounded=0;orthogonalLoop=1;jettySize=auto;html=1;" parent="44" source="24" target="o31jzJOnQ2RsSFP5l26K-45" edge="1">
          <mxGeometry x="-0.1036" relative="1" as="geometry">
            <mxPoint as="offset" />
          </mxGeometry>
        </mxCell>
        <mxCell id="NqGbOnK__rBXUSFtMVvT-45" value="invokes" style="edgeStyle=orthogonalEdgeStyle;rounded=0;orthogonalLoop=1;jettySize=auto;html=1;" parent="44" source="24" target="NqGbOnK__rBXUSFtMVvT-44" edge="1">
          <mxGeometry x="-0.8174" relative="1" as="geometry">
            <Array as="points">
              <mxPoint x="339" y="160" />
            </Array>
            <mxPoint as="offset" />
          </mxGeometry>
        </mxCell>
        <mxCell id="24" value="AWS Lambda&lt;br style=&quot;border-color: var(--border-color);&quot;&gt;&lt;i style=&quot;border-color: var(--border-color);&quot;&gt;(API)&lt;/i&gt;" style="sketch=0;points=[[0,0,0],[0.25,0,0],[0.5,0,0],[0.75,0,0],[1,0,0],[0,1,0],[0.25,1,0],[0.5,1,0],[0.75,1,0],[1,1,0],[0,0.25,0],[0,0.5,0],[0,0.75,0],[1,0.25,0],[1,0.5,0],[1,0.75,0]];outlineConnect=0;fontColor=#000000;gradientColor=#F78E04;gradientDirection=north;fillColor=#D05C17;strokeColor=#ffffff;dashed=0;verticalLabelPosition=bottom;verticalAlign=top;align=center;html=1;fontSize=12;fontStyle=0;aspect=fixed;shape=mxgraph.aws4.resourceIcon;resIcon=mxgraph.aws4.lambda;labelBackgroundColor=none;" parent="44" vertex="1">
          <mxGeometry x="300" y="340" width="78" height="78" as="geometry" />
        </mxCell>
        <mxCell id="26" value="proxy pass" style="edgeStyle=none;html=1;strokeColor=#000000;fontColor=#000000;labelBackgroundColor=none;" parent="44" source="25" target="24" edge="1">
          <mxGeometry x="-0.418" y="16" relative="1" as="geometry">
            <mxPoint x="261" y="369" as="targetPoint" />
            <mxPoint as="offset" />
          </mxGeometry>
        </mxCell>
        <mxCell id="aaWiERCUlSNiqH8K9m5D-60" value="auth" style="edgeStyle=none;rounded=0;orthogonalLoop=1;jettySize=auto;html=1;" parent="44" source="25" target="29" edge="1">
          <mxGeometry x="-0.6735" relative="1" as="geometry">
            <mxPoint x="139" y="270" as="targetPoint" />
            <mxPoint as="offset" />
          </mxGeometry>
        </mxCell>
        <mxCell id="25" value="Amazon&lt;br style=&quot;border-color: var(--border-color);&quot;&gt;API Gateway" style="sketch=0;points=[[0,0,0],[0.25,0,0],[0.5,0,0],[0.75,0,0],[1,0,0],[0,1,0],[0.25,1,0],[0.5,1,0],[0.75,1,0],[1,1,0],[0,0.25,0],[0,0.5,0],[0,0.75,0],[1,0.25,0],[1,0.5,0],[1,0.75,0]];outlineConnect=0;fontColor=#000000;gradientColor=#FF4F8B;gradientDirection=north;fillColor=#BC1356;strokeColor=#ffffff;dashed=0;verticalLabelPosition=bottom;verticalAlign=top;align=center;html=1;fontSize=12;fontStyle=0;aspect=fixed;shape=mxgraph.aws4.resourceIcon;resIcon=mxgraph.aws4.api_gateway;labelBackgroundColor=none;" parent="44" vertex="1">
          <mxGeometry x="100" y="340" width="78" height="78" as="geometry" />
        </mxCell>
        <mxCell id="41" value="REST" style="edgeStyle=none;html=1;labelBackgroundColor=none;fontColor=#000000;strokeColor=#000000;" parent="44" source="40" target="25" edge="1">
          <mxGeometry x="-0.6328" y="15" relative="1" as="geometry">
            <mxPoint x="-20" y="349" as="targetPoint" />
            <mxPoint as="offset" />
          </mxGeometry>
        </mxCell>
        <mxCell id="40" value="users" style="sketch=0;outlineConnect=0;gradientColor=none;fontColor=#545B64;strokeColor=none;fillColor=#879196;dashed=0;verticalLabelPosition=bottom;verticalAlign=top;align=center;html=1;fontSize=12;fontStyle=0;aspect=fixed;shape=mxgraph.aws4.illustration_users;pointerEvents=1;labelBackgroundColor=none;" parent="44" vertex="1">
          <mxGeometry x="-130" y="340" width="78" height="78" as="geometry" />
        </mxCell>
        <mxCell id="29" value="Amazon Cognito&lt;br&gt;User Pool" style="sketch=0;points=[[0,0,0],[0.25,0,0],[0.5,0,0],[0.75,0,0],[1,0,0],[0,1,0],[0.25,1,0],[0.5,1,0],[0.75,1,0],[1,1,0],[0,0.25,0],[0,0.5,0],[0,0.75,0],[1,0.25,0],[1,0.5,0],[1,0.75,0]];outlineConnect=0;fontColor=#000000;gradientColor=#F54749;gradientDirection=north;fillColor=#C7131F;strokeColor=#ffffff;dashed=0;verticalLabelPosition=bottom;verticalAlign=top;align=center;html=1;fontSize=12;fontStyle=0;aspect=fixed;shape=mxgraph.aws4.resourceIcon;resIcon=mxgraph.aws4.cognito;labelBackgroundColor=none;" parent="44" vertex="1">
          <mxGeometry x="100" y="140" width="78" height="78" as="geometry" />
        </mxCell>
        <mxCell id="27" value="Amazon&lt;br style=&quot;border-color: var(--border-color);&quot;&gt;DynamoDB" style="sketch=0;points=[[0,0,0],[0.25,0,0],[0.5,0,0],[0.75,0,0],[1,0,0],[0,1,0],[0.25,1,0],[0.5,1,0],[0.75,1,0],[1,1,0],[0,0.25,0],[0,0.5,0],[0,0.75,0],[1,0.25,0],[1,0.5,0],[1,0.75,0]];outlineConnect=0;fontColor=#000000;gradientColor=#4D72F3;gradientDirection=north;fillColor=#3334B9;strokeColor=#ffffff;dashed=0;verticalLabelPosition=bottom;verticalAlign=top;align=center;html=1;fontSize=12;fontStyle=0;aspect=fixed;shape=mxgraph.aws4.resourceIcon;resIcon=mxgraph.aws4.dynamodb;labelBackgroundColor=none;" parent="44" vertex="1">
          <mxGeometry x="500" y="340" width="78" height="78" as="geometry" />
        </mxCell>
        <mxCell id="o31jzJOnQ2RsSFP5l26K-45" value="SQS&lt;br&gt;&lt;i&gt;(Tasks)&lt;/i&gt;" style="sketch=0;outlineConnect=0;fontColor=#232F3E;gradientColor=none;fillColor=#B0084D;strokeColor=none;dashed=0;verticalLabelPosition=bottom;verticalAlign=top;align=center;html=1;fontSize=12;fontStyle=0;aspect=fixed;pointerEvents=1;shape=mxgraph.aws4.queue;" parent="44" vertex="1">
          <mxGeometry x="300" y="534" width="78" height="47" as="geometry" />
        </mxCell>
        <mxCell id="aaWiERCUlSNiqH8K9m5D-58" value="read/write" style="edgeStyle=none;rounded=0;orthogonalLoop=1;jettySize=auto;html=1;" parent="44" source="o31jzJOnQ2RsSFP5l26K-48" target="27" edge="1">
          <mxGeometry x="-0.4726" y="-1" relative="1" as="geometry">
            <mxPoint y="1" as="offset" />
          </mxGeometry>
        </mxCell>
        <mxCell id="o31jzJOnQ2RsSFP5l26K-48" value="AWS Lambda&lt;br&gt;&lt;i&gt;(Async Group / Tag&lt;br&gt;Processor)&lt;/i&gt;" style="sketch=0;points=[[0,0,0],[0.25,0,0],[0.5,0,0],[0.75,0,0],[1,0,0],[0,1,0],[0.25,1,0],[0.5,1,0],[0.75,1,0],[1,1,0],[0,0.25,0],[0,0.5,0],[0,0.75,0],[1,0.25,0],[1,0.5,0],[1,0.75,0]];outlineConnect=0;fontColor=#000000;gradientColor=#F78E04;gradientDirection=north;fillColor=#D05C17;strokeColor=#ffffff;dashed=0;verticalLabelPosition=bottom;verticalAlign=top;align=center;html=1;fontSize=12;fontStyle=0;aspect=fixed;shape=mxgraph.aws4.resourceIcon;resIcon=mxgraph.aws4.lambda;labelBackgroundColor=none;" parent="44" vertex="1">
          <mxGeometry x="500" y="518.5" width="78" height="78" as="geometry" />
        </mxCell>
        <mxCell id="aaWiERCUlSNiqH8K9m5D-52" style="edgeStyle=none;rounded=0;orthogonalLoop=1;jettySize=auto;html=1;" parent="44" source="o31jzJOnQ2RsSFP5l26K-45" target="o31jzJOnQ2RsSFP5l26K-48" edge="1">
          <mxGeometry relative="1" as="geometry">
            <Array as="points" />
          </mxGeometry>
        </mxCell>
        <mxCell id="NqGbOnK__rBXUSFtMVvT-44" value="AWS Lambda&lt;br style=&quot;border-color: var(--border-color);&quot;&gt;&lt;i style=&quot;border-color: var(--border-color);&quot;&gt;(API)&lt;/i&gt;" style="sketch=0;points=[[0,0,0],[0.25,0,0],[0.5,0,0],[0.75,0,0],[1,0,0],[0,1,0],[0.25,1,0],[0.5,1,0],[0.75,1,0],[1,1,0],[0,0.25,0],[0,0.5,0],[0,0.75,0],[1,0.25,0],[1,0.5,0],[1,0.75,0]];outlineConnect=0;fontColor=#000000;gradientColor=#F78E04;gradientDirection=north;fillColor=#D05C17;strokeColor=#ffffff;dashed=0;verticalLabelPosition=bottom;verticalAlign=top;align=center;html=1;fontSize=12;fontStyle=0;aspect=fixed;shape=mxgraph.aws4.resourceIcon;resIcon=mxgraph.aws4.lambda;labelBackgroundColor=none;" parent="44" vertex="1">
          <mxGeometry x="222" y="140" width="78" height="78" as="geometry" />
        </mxCell>
        <mxCell id="NqGbOnK__rBXUSFtMVvT-46" value="SIF Shared&#xa;Environment Resources" style="fillColor=none;strokeColor=#5A6C86;dashed=1;verticalAlign=top;fontStyle=0;fontColor=#5A6C86;labelBackgroundColor=none;" parent="1" vertex="1">
          <mxGeometry x="520" y="90" width="140" height="160" as="geometry" />
        </mxCell>
        <mxCell id="NqGbOnK__rBXUSFtMVvT-47" value="Amazon&lt;br style=&quot;border-color: var(--border-color);&quot;&gt;EventBridge" style="sketch=0;points=[[0,0,0],[0.25,0,0],[0.5,0,0],[0.75,0,0],[1,0,0],[0,1,0],[0.25,1,0],[0.5,1,0],[0.75,1,0],[1,1,0],[0,0.25,0],[0,0.5,0],[0,0.75,0],[1,0.25,0],[1,0.5,0],[1,0.75,0]];outlineConnect=0;fontColor=#232F3E;gradientColor=#FF4F8B;gradientDirection=north;fillColor=#BC1356;strokeColor=#ffffff;dashed=0;verticalLabelPosition=bottom;verticalAlign=top;align=center;html=1;fontSize=12;fontStyle=0;aspect=fixed;shape=mxgraph.aws4.resourceIcon;resIcon=mxgraph.aws4.eventbridge;" parent="1" vertex="1">
          <mxGeometry x="549" y="130" width="80" height="80" as="geometry" />
        </mxCell>
        <mxCell id="NqGbOnK__rBXUSFtMVvT-48" value="events" style="edgeStyle=orthogonalEdgeStyle;rounded=0;orthogonalLoop=1;jettySize=auto;html=1;" parent="1" source="24" target="NqGbOnK__rBXUSFtMVvT-47" edge="1">
          <mxGeometry x="-0.7569" y="20" relative="1" as="geometry">
            <Array as="points">
              <mxPoint x="589" y="340" />
            </Array>
            <mxPoint as="offset" />
          </mxGeometry>
        </mxCell>
      </root>
    </mxGraphModel>
  </diagram>
  <diagram id="nciGAq8Cf_bisqND-OEC" name="physical-deployment">
    <mxGraphModel dx="1242" dy="1673" grid="1" gridSize="10" guides="1" tooltips="1" connect="1" arrows="1" fold="1" page="1" pageScale="1" pageWidth="1100" pageHeight="850" math="0" shadow="0">
      <root>
        <mxCell id="0" />
        <mxCell id="1" parent="0" />
        <mxCell id="MaESYQvMZ-KVtAKj_bNN-1" value="   Tenant Silo" style="fillColor=none;strokeColor=#5A6C86;dashed=1;verticalAlign=top;fontStyle=0;fontColor=#5A6C86;labelBackgroundColor=none;align=left;" parent="1" vertex="1">
          <mxGeometry x="201" y="50" width="559" height="420" as="geometry" />
        </mxCell>
        <mxCell id="MaESYQvMZ-KVtAKj_bNN-2" value="Calculations Module" style="fillColor=none;strokeColor=#5A6C86;dashed=1;verticalAlign=top;fontStyle=0;fontColor=#5A6C86;labelBackgroundColor=none;" parent="1" vertex="1">
          <mxGeometry x="220" y="80" width="520" height="370" as="geometry" />
        </mxCell>
        <mxCell id="MaESYQvMZ-KVtAKj_bNN-11" value="CDK DEPLOY" style="edgeStyle=none;html=1;labelBackgroundColor=none;fontColor=#000000;strokeColor=#000000;" parent="1" source="MaESYQvMZ-KVtAKj_bNN-12" edge="1">
          <mxGeometry x="-0.3947" y="15" relative="1" as="geometry">
            <mxPoint x="250" y="335" as="targetPoint" />
            <mxPoint as="offset" />
          </mxGeometry>
        </mxCell>
        <mxCell id="MaESYQvMZ-KVtAKj_bNN-12" value="users" style="sketch=0;outlineConnect=0;gradientColor=none;fontColor=#545B64;strokeColor=none;fillColor=#879196;dashed=0;verticalLabelPosition=bottom;verticalAlign=top;align=center;html=1;fontSize=12;fontStyle=0;aspect=fixed;shape=mxgraph.aws4.illustration_users;pointerEvents=1;labelBackgroundColor=none;" parent="1" vertex="1">
          <mxGeometry y="296" width="78" height="78" as="geometry" />
        </mxCell>
        <mxCell id="MaESYQvMZ-KVtAKj_bNN-13" value="Region" style="points=[[0,0],[0.25,0],[0.5,0],[0.75,0],[1,0],[1,0.25],[1,0.5],[1,0.75],[1,1],[0.75,1],[0.5,1],[0.25,1],[0,1],[0,0.75],[0,0.5],[0,0.25]];outlineConnect=0;gradientColor=none;html=1;whiteSpace=wrap;fontSize=12;fontStyle=0;container=1;pointerEvents=0;collapsible=0;recursiveResize=0;shape=mxgraph.aws4.group;grIcon=mxgraph.aws4.group_region;strokeColor=#147EBA;fillColor=none;verticalAlign=top;align=left;spacingLeft=30;fontColor=#147EBA;dashed=1;" parent="1" vertex="1">
          <mxGeometry x="180" y="20" width="600" height="470" as="geometry" />
        </mxCell>
        <mxCell id="MaESYQvMZ-KVtAKj_bNN-14" value="AWS Cloud" style="points=[[0,0],[0.25,0],[0.5,0],[0.75,0],[1,0],[1,0.25],[1,0.5],[1,0.75],[1,1],[0.75,1],[0.5,1],[0.25,1],[0,1],[0,0.75],[0,0.5],[0,0.25]];outlineConnect=0;gradientColor=none;html=1;whiteSpace=wrap;fontSize=12;fontStyle=0;container=1;pointerEvents=0;collapsible=0;recursiveResize=0;shape=mxgraph.aws4.group;grIcon=mxgraph.aws4.group_aws_cloud_alt;strokeColor=#232F3E;fillColor=none;verticalAlign=top;align=left;spacingLeft=30;fontColor=#232F3E;dashed=0;" parent="1" vertex="1">
          <mxGeometry x="160" y="-10" width="640" height="520" as="geometry" />
        </mxCell>
        <mxCell id="MaESYQvMZ-KVtAKj_bNN-18" value="AWS Systems Manager&lt;br style=&quot;border-color: var(--border-color);&quot;&gt;&lt;i style=&quot;border-color: var(--border-color);&quot;&gt;(Config)&lt;/i&gt;" style="sketch=0;outlineConnect=0;fontColor=#232F3E;gradientColor=none;fillColor=#B0084D;strokeColor=none;dashed=0;verticalLabelPosition=bottom;verticalAlign=top;align=center;html=1;fontSize=12;fontStyle=0;aspect=fixed;pointerEvents=1;shape=mxgraph.aws4.parameter_store;" parent="MaESYQvMZ-KVtAKj_bNN-14" vertex="1">
          <mxGeometry x="101.5" y="120" width="75" height="78" as="geometry" />
        </mxCell>
        <mxCell id="L6Fsh915xMBsslGw0S4I-8" value="invokes" style="edgeStyle=orthogonalEdgeStyle;rounded=0;orthogonalLoop=1;jettySize=auto;html=1;" parent="MaESYQvMZ-KVtAKj_bNN-14" source="MaESYQvMZ-KVtAKj_bNN-20" target="L6Fsh915xMBsslGw0S4I-4" edge="1">
          <mxGeometry relative="1" as="geometry" />
        </mxCell>
        <mxCell id="MaESYQvMZ-KVtAKj_bNN-20" value="AWS CloudFormation" style="sketch=0;points=[[0,0,0],[0.25,0,0],[0.5,0,0],[0.75,0,0],[1,0,0],[0,1,0],[0.25,1,0],[0.5,1,0],[0.75,1,0],[1,1,0],[0,0.25,0],[0,0.5,0],[0,0.75,0],[1,0.25,0],[1,0.5,0],[1,0.75,0]];points=[[0,0,0],[0.25,0,0],[0.5,0,0],[0.75,0,0],[1,0,0],[0,1,0],[0.25,1,0],[0.5,1,0],[0.75,1,0],[1,1,0],[0,0.25,0],[0,0.5,0],[0,0.75,0],[1,0.25,0],[1,0.5,0],[1,0.75,0]];outlineConnect=0;fontColor=#232F3E;gradientColor=#F34482;gradientDirection=north;fillColor=#BC1356;strokeColor=#ffffff;dashed=0;verticalLabelPosition=bottom;verticalAlign=top;align=center;html=1;fontSize=12;fontStyle=0;aspect=fixed;shape=mxgraph.aws4.resourceIcon;resIcon=mxgraph.aws4.cloudformation;" parent="MaESYQvMZ-KVtAKj_bNN-14" vertex="1">
          <mxGeometry x="100" y="311" width="78" height="78" as="geometry" />
        </mxCell>
        <mxCell id="MaESYQvMZ-KVtAKj_bNN-19" value="store" style="edgeStyle=orthogonalEdgeStyle;rounded=0;orthogonalLoop=1;jettySize=auto;html=1;" parent="MaESYQvMZ-KVtAKj_bNN-14" source="MaESYQvMZ-KVtAKj_bNN-20" target="MaESYQvMZ-KVtAKj_bNN-18" edge="1">
          <mxGeometry x="-0.6332" y="-1" relative="1" as="geometry">
            <Array as="points" />
            <mxPoint as="offset" />
          </mxGeometry>
        </mxCell>
        <mxCell id="L6Fsh915xMBsslGw0S4I-4" value="AWS Lambda&lt;br style=&quot;border-color: var(--border-color);&quot;&gt;&lt;i style=&quot;border-color: var(--border-color);&quot;&gt;(Log Retention&lt;br style=&quot;border-color: var(--border-color);&quot;&gt;Management)&lt;/i&gt;" style="sketch=0;points=[[0,0,0],[0.25,0,0],[0.5,0,0],[0.75,0,0],[1,0,0],[0,1,0],[0.25,1,0],[0.5,1,0],[0.75,1,0],[1,1,0],[0,0.25,0],[0,0.5,0],[0,0.75,0],[1,0.25,0],[1,0.5,0],[1,0.75,0]];outlineConnect=0;fontColor=#000000;gradientColor=#F78E04;gradientDirection=north;fillColor=#D05C17;strokeColor=#ffffff;dashed=0;verticalLabelPosition=bottom;verticalAlign=top;align=center;html=1;fontSize=12;fontStyle=0;aspect=fixed;shape=mxgraph.aws4.resourceIcon;resIcon=mxgraph.aws4.lambda;labelBackgroundColor=none;" parent="MaESYQvMZ-KVtAKj_bNN-14" vertex="1">
          <mxGeometry x="280" y="311" width="78" height="78" as="geometry" />
        </mxCell>
        <mxCell id="L6Fsh915xMBsslGw0S4I-5" value="Amazon CloudWatch&lt;br style=&quot;border-color: var(--border-color);&quot;&gt;&lt;i style=&quot;border-color: var(--border-color);&quot;&gt;(App Logs)&lt;/i&gt;" style="sketch=0;outlineConnect=0;fontColor=#232F3E;gradientColor=none;fillColor=#B0084D;strokeColor=none;dashed=0;verticalLabelPosition=bottom;verticalAlign=top;align=center;html=1;fontSize=12;fontStyle=0;aspect=fixed;pointerEvents=1;shape=mxgraph.aws4.logs;" parent="1" vertex="1">
          <mxGeometry x="630" y="306" width="78" height="58" as="geometry" />
        </mxCell>
        <mxCell id="L6Fsh915xMBsslGw0S4I-6" value="configures" style="edgeStyle=orthogonalEdgeStyle;rounded=0;orthogonalLoop=1;jettySize=auto;html=1;" parent="1" source="L6Fsh915xMBsslGw0S4I-4" target="L6Fsh915xMBsslGw0S4I-5" edge="1">
          <mxGeometry relative="1" as="geometry" />
        </mxCell>
      </root>
    </mxGraphModel>
  </diagram>
</mxfile>
